<?xml version="1.0" encoding="UTF-8"?>
<svg xmlns="http://www.w3.org/2000/svg" viewBox="0 0 538 507">
    <defs>
        <style>
            .cls-1, .cls-2 {
            stroke-width: 0px;
            }

            .cls-2 {
            fill: #fff;
            }
        </style>
    </defs>
    <defs>
<!--        <linearGradient id="gradient1" x1="0%" y1="0%" x2="100%" y2="100%">-->
        <linearGradient id="gradient1" x1="0%" y1="40%" x2="100%" y2="60%">
<!--            <stop offset="0%" style="stop-color:#eea2a2;stop-opacity:1" />-->
<!--            <stop offset="19%" style="stop-color:#bbc1bf;stop-opacity:1" />-->
<!--            <stop offset="42%" style="stop-color:#57c6e1;stop-opacity:1" />-->
<!--            <stop offset="79%" style="stop-color:#b49fda;stop-opacity:1" />-->
<!--            <stop offset="100%" style="stop-color:#7ac5d8;stop-opacity:1" />-->
            <stop offset="0%" style="stop-color:#5f72bd;stop-opacity:1" />
            <stop offset="100%" style="stop-color:#9b23ea;stop-opacity:1" />
        </linearGradient>
    </defs>
    <g>
        <g>
            <path class="cls-1" fill="url(#gradient1)"
                  d="M445,507H97c-5.36-.76-10.78-1.23-16.06-2.34-26.02-5.5-46.92-18.96-61.77-41.11C7.87,446.69.64,428.33.98,407.58c.13-7.99.02-15.99.02-23.99,0-86.65-.02-173.29.05-259.94,0-4.1.39-8.3,1.28-12.3,6.88-30.72,24.86-52.9,52.41-67.66,14.66-7.85,30.54-10.22,46.87-10.4,13.65-.15,27.31-.04,40.97-.03,7.36,0,11.98-3.47,14.49-10.47,2.96-8.25,8.31-14.72,16.58-18.14C178.28,2.75,183.21,1.53,188,0c53.67,0,107.33,0,161,0,.56.31,1.11.84,1.7.9,15.45,1.54,26.59,8.51,31.81,23.92,1.57,4.64,5.5,7.91,10.91,8.15,5.48.25,10.98.22,16.47.4,15.26.51,30.8-.59,45.73,1.93,38.68,6.52,64.95,29.02,78.27,66.1,1.92,5.34,2.77,11.05,4.11,16.59v296c-1,4.9-1.83,9.84-3.02,14.69-9.41,38.35-33.28,63.02-70.94,74.37-6.18,1.86-12.68,2.65-19.04,3.94ZM419,274.34c-1.21-82.84-68.33-145.05-143.13-147.94-84.69-3.27-155.9,65.68-155.83,149.29.07,80.93,67.49,150.79,153.5,149.07,79.22-1.58,145.16-67.95,145.45-150.43ZM398.3,76.23c3.66,9.76,6.7,17.9,9.76,26.03.64,1.7,1.25,3.41,2.05,5.03,1.64,3.37,3.83,6.33,7.93,6.6,3.65.25,7.48.72,10.96-.07,16.88-3.86,29.21,12.01,29.17,24.32-.3,87.32-.15,174.64-.2,261.96,0,2.76-.22,5.68-1.1,8.26-3.46,10.1-11.29,20.74-25.19,19.7-4.97-.37-10-.13-14.99-.04-5.32.1-10.41,1.38-13.25,6.22-3.31,5.63-6.44,11.47-8.74,17.56-2.8,7.37,1.76,13.17,9.64,13.19,8.67.02,17.33-.07,26,.02,15.7.16,29.85-3.75,41.99-14.34,14.59-12.72,23.44-28.56,23.53-47.79.39-88.49.18-176.97.13-265.46,0-3.45-.34-6.93-.85-10.35-3.53-23.69-17.06-39.3-39.31-47.25-18.48-6.6-37.61-3.18-57.51-3.6ZM140.91,76.91c-7.37,0-14.03-.02-20.69,0-9.33.03-18.9-1.23-27.95.37-28.57,5.04-49.22,28.1-49.24,58.18-.06,88.49-.12,176.98.15,265.48.02,7.57,1.38,15.54,4,22.64,7.54,20.42,21.38,35.51,43.35,39.28,15.03,2.58,30.69,1.91,46.07,1.95,6.4.02,10.54-6.84,8.04-12.62-2.67-6.16-6.11-12.03-9.66-17.75-2.5-4.02-6.38-5.66-11.44-5.61-7.75.07-15.72.21-23.23-1.4-11.78-2.53-20.18-14.92-20.2-27.96-.04-30.83.04-61.66.03-92.49-.01-55.16-.08-110.32-.05-165.48,0-13.32,6.62-25.66,22.54-28.06,5.71-.86,11.63-.51,17.45-.31,4.29.14,7.15-2.08,8.58-5.42,4.27-9.96,8.06-20.14,12.26-30.77ZM268.7,44c-20.16,0-40.32,0-60.48,0-6.57,0-11.7,2.64-14.13,8.82-2.99,7.59-5.61,15.35-7.93,23.17-1.06,3.58.52,6.06,4.87,6.13,11.95.21,23.9.85,35.85.82,18.02-.04,36.04-.63,54.07-.76,21.99-.16,43.98-.07,65.98-.12,5.67-.01,7.24-2.03,5.48-7.4-1.95-5.94-4.36-11.72-6.27-17.67-3.14-9.76-8.54-13.09-19.45-13.03-19.33.1-38.65.03-57.98.03Z"/>
            <path class="cls-1" fill="url(#gradient1)"
                  d="M270.14,385c-62.77,2.05-112.13-52.6-111.39-110.05.79-61.47,52.95-110.62,111.97-109.92,61.05.73,110.06,50.32,110,110.09-.06,58.85-47.06,111.11-110.57,109.89ZM257.02,223.67c0-4.33-.03-8.65,0-12.98.03-3.39-1.23-4.7-4.8-3.78-15.55,3.98-28.97,11.09-39.67,23.59-11.52,13.46-17.63,28.42-16.59,46.2.31,5.3,2.54,8.88,7.15,9.15,7.13.42,14.31.36,21.45.03,3.59-.16,5.68-2.76,5.25-6.44-1.77-15.26,3.94-28.05,17-34.62,9.94-4.99,11.2-11.21,10.2-20.15-.04-.33,0-.67,0-1Z"/>

<!--            <path class="cls-2"-->
<!--                  d="M188,0c-4.79,1.53-9.72,2.75-14.35,4.66-8.26,3.42-13.62,9.89-16.58,18.14-2.51,7-7.13,10.47-14.49,10.47-13.66,0-27.31-.12-40.97.03-16.33.18-32.2,2.55-46.87,10.4C27.19,58.45,9.22,80.64,2.34,111.36c-.9,4-1.28,8.19-1.28,12.3-.07,86.65-.05,173.29-.05,259.94,0,8,.11,15.99-.02,23.99-.33,20.75,6.89,39.1,18.19,55.96,14.85,22.15,35.75,35.62,61.77,41.11,5.28,1.12,10.7,1.58,16.06,2.34H0C0,338,0,169,0,0,62.67,0,125.33,0,188,0Z"/>-->
<!--            <path class="cls-2"-->
<!--                  d="M538,118c-1.34-5.54-2.2-11.26-4.11-16.59-13.31-37.08-39.59-59.58-78.27-66.1-14.93-2.52-30.47-1.42-45.73-1.93-5.49-.18-10.99-.15-16.47-.4-5.41-.24-9.34-3.52-10.91-8.15-5.22-15.41-16.36-22.38-31.81-23.92-.59-.06-1.13-.59-1.7-.9,63,0,126,0,189,0v118Z"/>-->
<!--            <path class="cls-2"-->
<!--                  d="M445,507c6.35-1.29,12.86-2.08,19.04-3.94,37.66-11.34,61.53-36.02,70.94-74.37,1.19-4.85,2.02-9.79,3.02-14.69v93h-93Z"/>-->
<!--            <path class="cls-2"-->
<!--                  d="M419,274.34c-.29,82.49-66.23,148.85-145.45,150.43-86.01,1.72-153.43-68.14-153.5-149.07-.07-83.61,71.13-152.56,155.83-149.29,74.8,2.88,141.92,65.1,143.13,147.94ZM270.14,385c63.51,1.22,110.5-51.03,110.57-109.89.07-59.77-48.95-109.36-110-110.09-59.02-.7-111.18,48.45-111.97,109.92-.73,57.45,48.62,112.11,111.39,110.05Z"/>-->
<!--            <path class="cls-2"-->
<!--                  d="M398.3,76.23c19.9.42,39.03-3.01,57.51,3.6,22.24,7.95,35.78,23.56,39.31,47.25.51,3.42.85,6.9.85,10.35.05,88.49.25,176.97-.13,265.46-.08,19.24-8.93,35.07-23.53,47.79-12.14,10.58-26.29,14.49-41.99,14.34-8.66-.09-17.33,0-26-.02-7.89-.02-12.44-5.82-9.64-13.19,2.31-6.09,5.43-11.93,8.74-17.56,2.85-4.84,7.94-6.12,13.25-6.22,5-.1,10.02-.33,14.99.04,13.9,1.04,21.74-9.6,25.19-19.7.88-2.58,1.1-5.5,1.1-8.26.05-87.32-.09-174.64.2-261.96.04-12.3-12.29-28.18-29.17-24.32-3.48.8-7.32.32-10.96.07-4.09-.28-6.29-3.23-7.93-6.6-.79-1.62-1.41-3.34-2.05-5.03-3.06-8.13-6.1-16.27-9.76-26.03Z"/>-->
<!--            <path class="cls-2"-->
<!--                  d="M140.91,76.91c-4.19,10.64-7.98,20.81-12.26,30.77-1.44,3.35-4.29,5.57-8.58,5.42-5.81-.19-11.74-.54-17.45.31-15.92,2.39-22.53,14.74-22.54,28.06-.03,55.16.04,110.32.05,165.48,0,30.83-.07,61.66-.03,92.49.02,13.04,8.42,25.43,20.2,27.96,7.51,1.61,15.47,1.47,23.23,1.4,5.06-.05,8.94,1.6,11.44,5.61,3.56,5.71,7,11.59,9.66,17.75,2.5,5.78-1.64,12.64-8.04,12.62-15.38-.04-31.03.63-46.07-1.95-21.98-3.77-35.81-18.87-43.35-39.28-2.62-7.09-3.98-15.06-4-22.64-.27-88.49-.21-176.98-.15-265.48.02-30.08,20.67-53.14,49.24-58.18,9.06-1.6,18.62-.34,27.95-.37,6.66-.02,13.32,0,20.69,0Z"/>-->
<!--            <path class="cls-2"-->
<!--                  d="M268.7,44c19.33,0,38.65.08,57.98-.03,10.91-.06,16.31,3.26,19.45,13.03,1.91,5.95,4.32,11.73,6.27,17.67,1.76,5.36.19,7.38-5.48,7.4-21.99.05-43.99-.04-65.98.12-18.02.13-36.04.72-54.07.76-11.95.03-23.9-.62-35.85-.82-4.34-.08-5.93-2.55-4.87-6.13,2.32-7.82,4.94-15.58,7.93-23.17,2.43-6.18,7.57-8.82,14.13-8.82,20.16.01,40.32,0,60.48,0Z"/>-->
<!--            <path class="cls-2"-->
<!--                  d="M257.02,223.67c0,.33-.03.67,0,1,1,8.93-.26,15.15-10.2,20.15-13.06,6.56-18.77,19.36-17,34.62.43,3.69-1.67,6.28-5.25,6.44-7.14.33-14.32.39-21.45-.03-4.61-.27-6.84-3.85-7.15-9.15-1.03-17.78,5.07-32.74,16.59-46.2,10.7-12.5,24.12-19.61,39.67-23.59,3.58-.92,4.83.4,4.8,3.78-.04,4.33,0,8.65,0,12.98Z"/>-->
        </g>
    </g>
</svg>